<svg xmlns="http://www.w3.org/2000/svg" viewBox="0 0 520 160" font-family="ui-monospace,SFMono-Regular,Menlo,Consolas,monospace">
  <defs><marker id="ah" markerWidth="8" markerHeight="8" refX="6" refY="3" orient="auto"><path d="M0,0 L6,3 L0,6" fill="none" stroke="#9aa0a6" stroke-width="1"/></marker></defs>
  <rect width="520" height="160" fill="#fff"/>
  <rect x="16" y="60" width="96" height="40" rx="5" fill="#fff" stroke="#9aa0a6"/>
  <text x="64" y="84" text-anchor="middle" font-size="11" fill="#3c4043">byte b</text>
  <path d="M112 80 L168 80" fill="none" stroke="#9aa0a6" stroke-width="1" marker-end="url(#ah)"/>
  <text x="140" y="73" text-anchor="middle" font-size="8.5" fill="#9aa0a6">8×8</text>

  <!-- 8x8 grid -->
  <g transform="translate(176,40)">
    <rect x="0" y="0" width="80" height="80" fill="#b8bcc4"/>
    <g stroke="#fff" stroke-width="1">
      <line x1="10" y1="0" x2="10" y2="80"/><line x1="20" y1="0" x2="20" y2="80"/><line x1="30" y1="0" x2="30" y2="80"/><line x1="40" y1="0" x2="40" y2="80"/><line x1="50" y1="0" x2="50" y2="80"/><line x1="60" y1="0" x2="60" y2="80"/><line x1="70" y1="0" x2="70" y2="80"/>
      <line x1="0" y1="10" x2="80" y2="10"/><line x1="0" y1="20" x2="80" y2="20"/><line x1="0" y1="30" x2="80" y2="30"/><line x1="0" y1="40" x2="80" y2="40"/><line x1="0" y1="50" x2="80" y2="50"/><line x1="0" y1="60" x2="80" y2="60"/><line x1="0" y1="70" x2="80" y2="70"/>
    </g>
    <rect x="30" y="30" width="20" height="20" fill="none" stroke="#e8503a" stroke-width="1.6"/>
  </g>
  <text x="216" y="134" text-anchor="middle" font-size="9" fill="#e8503a">center</text>

  <path d="M256 80 L320 80" fill="none" stroke="#9aa0a6" stroke-width="1" marker-end="url(#ah)"/>
  <text x="288" y="73" text-anchor="middle" font-size="8.5" fill="#9aa0a6">sample</text>
  <rect x="322" y="60" width="96" height="40" rx="5" fill="#fff" stroke="#9aa0a6"/>
  <text x="370" y="84" text-anchor="middle" font-size="11" fill="#3c4043">b</text>
</svg>
