<svg xmlns="http://www.w3.org/2000/svg" viewBox="0 0 900 100" font-family="ui-monospace,SFMono-Regular,Menlo,Consolas,monospace">
  <defs><marker id="ah" markerWidth="8" markerHeight="8" refX="6" refY="3" orient="auto"><path d="M0,0 L6,3 L0,6" fill="none" stroke="#9aa0a6" stroke-width="1"/></marker></defs>
  <rect width="900" height="100" fill="#fff"/>
  <rect x="12" y="36" width="120" height="40" rx="5" fill="#fff" stroke="#9aa0a6"/>
  <text x="72" y="60" text-anchor="middle" font-size="11" fill="#3c4043">browser</text>
  <path d="M132 56 L196 56" fill="none" stroke="#9aa0a6" stroke-width="1" marker-end="url(#ah)"/>
  <text x="164" y="48" text-anchor="middle" font-size="8.5" fill="#9aa0a6">POST /app/avatar</text>
  <rect x="198" y="36" width="130" height="40" rx="5" fill="#fff" stroke="#9aa0a6"/>
  <text x="263" y="60" text-anchor="middle" font-size="11" fill="#3c4043">store blob</text>
  <path d="M328 56 L392 56" fill="none" stroke="#9aa0a6" stroke-width="1" marker-end="url(#ah)"/>
  <text x="360" y="48" text-anchor="middle" font-size="8.5" fill="#9aa0a6">GET /avatar</text>
  <rect x="394" y="36" width="150" height="40" rx="5" fill="#fff" stroke="#9aa0a6"/>
  <text x="469" y="60" text-anchor="middle" font-size="11" fill="#3c4043">thumbnail</text>
  <path d="M544 56 L608 56" fill="none" stroke="#9aa0a6" stroke-width="1" marker-end="url(#ah)"/>
  <text x="576" y="48" text-anchor="middle" font-size="8.5" fill="#9aa0a6">is_a()</text>
  <rect x="610" y="36" width="120" height="40" rx="5" fill="#fff" stroke="#e8503a"/>
  <text x="670" y="60" text-anchor="middle" font-size="11" fill="#e8503a">matload</text>
  <path d="M730 56 L794 56" fill="none" stroke="#9aa0a6" stroke-width="1" marker-end="url(#ah)"/>
  <rect x="796" y="36" width="92" height="40" rx="5" fill="#fff" stroke="#e8503a"/>
  <text x="842" y="60" text-anchor="middle" font-size="10" fill="#e8503a">file read</text>
</svg>
