<svg xmlns="http://www.w3.org/2000/svg" viewBox="0 0 900 90" font-family="ui-monospace,SFMono-Regular,Menlo,Consolas,monospace">
  <defs><marker id="ah" markerWidth="8" markerHeight="8" refX="6" refY="3" orient="auto"><path d="M0,0 L6,3 L0,6" fill="none" stroke="#9aa0a6" stroke-width="1"/></marker></defs>
  <rect width="900" height="90" fill="#fff"/>
  <rect x="12" y="28" width="120" height="40" rx="5" fill="#fff" stroke="#9aa0a6"/>
  <text x="72" y="52" text-anchor="middle" font-size="11" fill="#3c4043">avatar.png</text>
  <path d="M132 48 L184 48" fill="none" stroke="#9aa0a6" stroke-width="1" marker-end="url(#ah)"/>
  <rect x="186" y="28" width="120" height="40" rx="5" fill="#fff" stroke="#9aa0a6"/>
  <text x="246" y="52" text-anchor="middle" font-size="11" fill="#3c4043">gray raw</text>
  <path d="M306 48 L358 48" fill="none" stroke="#9aa0a6" stroke-width="1" marker-end="url(#ah)"/>
  <rect x="360" y="28" width="150" height="40" rx="5" fill="#fff" stroke="#9aa0a6"/>
  <text x="435" y="52" text-anchor="middle" font-size="11" fill="#3c4043">sample centers</text>
  <path d="M510 48 L562 48" fill="none" stroke="#9aa0a6" stroke-width="1" marker-end="url(#ah)"/>
  <rect x="564" y="28" width="110" height="40" rx="5" fill="#fff" stroke="#9aa0a6"/>
  <text x="619" y="52" text-anchor="middle" font-size="11" fill="#3c4043">bytes</text>
  <path d="M674 48 L726 48" fill="none" stroke="#9aa0a6" stroke-width="1" marker-end="url(#ah)"/>
  <text x="700" y="41" text-anchor="middle" font-size="8.5" fill="#9aa0a6">split \0</text>
  <rect x="728" y="28" width="160" height="40" rx="5" fill="#fff" stroke="#e8503a"/>
  <text x="808" y="52" text-anchor="middle" font-size="10.5" fill="#e8503a">KEY=VALUE</text>
</svg>
